<svg width="24" height="24" viewBox="0 0 24 24" fill="none" xmlns="http://www.w3.org/2000/svg">
  <path d="M20.0007 5.49997C20.0018 6.2034 19.7908 6.89082 19.3953 7.4725C18.9997 8.05418 18.438 8.50309 17.7834 8.76063C17.1288 9.01817 16.4118 9.07237 15.7259 8.91616C15.04 8.75994 14.4172 8.40058 13.9387 7.88497L8.8267 10.906C9.06053 11.6166 9.06053 12.3834 8.8267 13.094L13.9387 16.115C14.5273 15.4839 15.3283 15.0925 16.1879 15.0159C17.0475 14.9394 17.905 15.1831 18.5958 15.7003C19.2867 16.2175 19.7621 16.9716 19.9308 17.818C20.0995 18.6643 19.9495 19.5431 19.5098 20.2857C19.07 21.0282 18.3714 21.5821 17.5482 21.8409C16.7249 22.0998 15.8351 22.0454 15.0495 21.6882C14.2639 21.331 13.638 20.6961 13.292 19.9056C12.946 19.115 12.9042 18.2245 13.1747 17.405L8.0627 14.385C7.70453 14.7687 7.26461 15.0669 6.77554 15.2575C6.28647 15.4481 5.76078 15.5263 5.23741 15.4862C4.71404 15.446 4.2064 15.2887 3.7521 15.0257C3.2978 14.7628 2.90848 14.401 2.61298 13.9672C2.31748 13.5334 2.12337 13.0386 2.04504 12.5196C1.96671 12.0005 2.00615 11.4705 2.16046 10.9688C2.31476 10.4671 2.57997 10.0065 2.93643 9.62124C3.2929 9.23593 3.73148 8.93577 4.2197 8.74297C4.87376 8.48564 5.59015 8.4312 6.27558 8.58673C6.96102 8.74226 7.58375 9.10056 8.0627 9.61497L13.1747 6.59397C13.0171 6.11301 12.9657 5.60359 13.024 5.10084C13.0823 4.59809 13.249 4.11397 13.5125 3.68186C13.776 3.24975 14.1301 2.87993 14.5504 2.5979C14.9707 2.31587 15.4471 2.12835 15.9468 2.04825C16.4466 1.96816 16.9577 1.9974 17.4451 2.13397C17.9324 2.27053 18.3844 2.51117 18.7697 2.83929C19.1551 3.1674 19.4647 3.57519 19.6772 4.03453C19.8897 4.49388 20.0001 4.99385 20.0007 5.49997ZM18.5007 18.5C18.5067 18.2336 18.4595 17.9688 18.3617 17.7209C18.264 17.4731 18.1177 17.2473 17.9315 17.0568C17.7453 16.8663 17.5229 16.7149 17.2774 16.6115C17.0318 16.5081 16.7681 16.4548 16.5017 16.4548C16.2353 16.4547 15.9716 16.5078 15.726 16.6111C15.4804 16.7144 15.2579 16.8657 15.0716 17.0561C14.8853 17.2465 14.7389 17.4722 14.6411 17.72C14.5432 17.9678 14.4958 18.2326 14.5017 18.499C14.5133 19.0215 14.7289 19.5188 15.1025 19.8843C15.4762 20.2499 15.978 20.4546 16.5007 20.4548C17.0234 20.4549 17.5254 20.2504 17.8992 19.885C18.273 19.5197 18.4889 19.0225 18.5007 18.5ZM18.5007 5.49997C18.5067 5.23363 18.4595 4.96877 18.3617 4.72095C18.264 4.47312 18.1177 4.24732 17.9315 4.0568C17.7453 3.86628 17.5229 3.71488 17.2774 3.6115C17.0318 3.50811 16.7681 3.45482 16.5017 3.45475C16.2353 3.45469 15.9716 3.50785 15.726 3.61111C15.4804 3.71437 15.2579 3.86566 15.0716 4.05608C14.8853 4.24651 14.7389 4.47224 14.6411 4.72002C14.5432 4.96779 14.4958 5.23263 14.5017 5.49897C14.5133 6.02153 14.7289 6.51881 15.1025 6.88434C15.4762 7.24988 15.978 7.45462 16.5007 7.45475C17.0234 7.45489 17.5254 7.25039 17.8992 6.88504C18.273 6.51969 18.4889 6.02253 18.5007 5.49997ZM5.5007 14C5.76704 14.006 6.0319 13.9587 6.27973 13.861C6.52755 13.7633 6.75335 13.617 6.94387 13.4308C7.13439 13.2446 7.28579 13.0222 7.38917 12.7766C7.49256 12.5311 7.54585 12.2674 7.54592 12.001C7.54598 11.7346 7.49282 11.4708 7.38956 11.2253C7.2863 10.9797 7.13501 10.7572 6.94459 10.5709C6.75416 10.3846 6.52843 10.2382 6.28066 10.1403C6.03288 10.0425 5.76804 9.99508 5.5017 10.001C4.97914 10.0125 4.48187 10.2282 4.11633 10.6018C3.75079 10.9754 3.54605 11.4773 3.54592 12C3.54579 12.5227 3.75028 13.0246 4.11563 13.3984C4.48098 13.7722 4.97814 13.9882 5.5007 14Z" fill="#3E1A00"/>
</svg>
